<svg xmlns="http://www.w3.org/2000/svg" viewBox="0 0 64 64"><g data-name="News"><path fill="#546e7a" d="M44,55.5H20A11.5131,11.5131,0,0,1,8.5,44V20A11.5131,11.5131,0,0,1,20,8.5H44A11.5134,11.5134,0,0,1,55.5,20V44A11.5134,11.5134,0,0,1,44,55.5Zm-24-44A8.51,8.51,0,0,0,11.5,20V44A8.51,8.51,0,0,0,20,52.5H44A8.51,8.51,0,0,0,52.5,44V20A8.51,8.51,0,0,0,44,11.5Z"/><path fill="#ffcf4a" d="M20.0459 48.5a4.5459 4.5459 0 1 1 4.5459-4.5459A4.5508 4.5508 0 0 1 20.0459 48.5zm0-6.0918a1.5459 1.5459 0 1 0 1.5459 1.5459A1.5475 1.5475 0 0 0 20.0459 42.4082zM40.8223 48.5a1.5 1.5 0 0 1-1.5-1.5 22.5143 22.5143 0 0 0-.1827-2.8564 1.5 1.5 0 1 1 2.9766-.3809A25.6088 25.6088 0 0 1 42.3223 47 1.5 1.5 0 0 1 40.8223 48.5zM38.8545 39.0205a1.4992 1.4992 0 0 1-1.376-.9014A22.3415 22.3415 0 0 0 17 24.6787a1.5 1.5 0 0 1 0-3A25.34 25.34 0 0 1 40.2285 36.9219a1.5 1.5 0 0 1-1.374 2.0986z"/><path fill="#ffcf4a" d="M32.8218,48.5a1.5,1.5,0,0,1-1.5-1.5A14.338,14.338,0,0,0,17,32.6787a1.5,1.5,0,0,1,0-3A17.3408,17.3408,0,0,1,34.3213,47,1.5,1.5,0,0,1,32.8218,48.5Z"/></g></svg>